<?xml version="1.0" standalone="no"?>
<!DOCTYPE svg PUBLIC "-//W3C//DTD SVG 1.1//EN" "http://www.w3.org/Graphics/SVG/1.1/DTD/svg11.dtd">
<svg width="100%" height="100%" viewBox="0 0 128 128" version="1.1" xmlns="http://www.w3.org/2000/svg" xmlns:xlink="http://www.w3.org/1999/xlink" xml:space="preserve" style="fill-rule:evenodd;clip-rule:evenodd;stroke-linejoin:round;stroke-miterlimit:1.41421;">
    <g id="_x33_3_" transform="matrix(0.259094,0,0,0.259094,0.503903,-0.149402)">
        <g>
            <path d="M175.819,147.222L265.167,147.222L242.486,197.113L175.819,197.113C162.039,197.113 150.873,185.942 150.873,172.162C150.873,158.475 161.907,147.355 175.819,147.222Z" style="fill:rgb(103,95,88);"/>
            <path d="M337.846,151.326C344.627,155.717 349.138,163.415 349.137,172.162C349.137,185.942 337.96,197.113 324.186,197.113L317.032,197.113L325.053,179.468C327.713,178.093 329.438,175.33 329.437,172.162L329.11,170.544L337.846,151.326Z" style="fill:rgb(103,95,88);"/>
            <path d="M175.819,202.696L239.948,202.696L217.266,252.588L175.819,252.588C162.039,252.588 150.873,241.423 150.873,227.642C150.873,213.943 161.907,202.829 175.819,202.696Z" style="fill:rgb(103,95,88);"/>
            <g transform="matrix(2.96699,0,0,2.96699,56.3223,57.6194)">
                <path d="M90.281,65.713L79.37,65.713L87.015,48.897L90.281,48.897C94.969,48.942 98.691,52.688 98.691,57.305C98.691,61.949 94.924,65.713 90.281,65.713ZM89.175,60.183C87.588,60.183 86.299,58.892 86.299,57.305C86.299,55.717 87.588,54.428 89.175,54.428C90.764,54.428 92.051,55.718 92.051,57.305C92.051,58.892 90.764,60.183 89.175,60.183Z" style="fill:rgb(103,95,88);"/>
            </g>
            <path d="M175.819,258.171L214.728,258.171L192.045,308.067L175.819,308.067C162.039,308.067 150.873,296.896 150.873,283.116C150.873,269.418 161.907,258.304 175.819,258.171Z" style="fill:rgb(103,95,88);"/>
            <g transform="matrix(2.96699,0,0,2.96699,56.3223,57.6194)">
                <path d="M90.281,84.411L70.87,84.411L78.515,67.594L90.281,67.594C94.969,67.639 98.691,71.385 98.691,76.002C98.691,80.646 94.924,84.411 90.281,84.411ZM89.175,78.876C87.588,78.876 86.299,77.591 86.299,76.002C86.299,74.413 87.588,73.126 89.175,73.126C90.764,73.126 92.051,74.413 92.051,76.002C92.051,77.591 90.764,78.876 89.175,78.876Z" style="fill:rgb(103,95,88);"/>
            </g>
        </g>
        <g>
            <path d="M292.242,352.778L246.267,352.778L254.929,333.724L292.242,333.724L292.242,352.778Z" style="fill:rgb(255,147,30);"/>
        </g>
        <g>
            <rect x="297.472" y="339.681" width="67.714" height="6.288" style="fill:rgb(255,147,30);"/>
        </g>
    </g>
    <g transform="matrix(0.812426,0.366021,-0.349304,0.775319,66.9172,3.40595)">
        <path d="M23.209,15.693C23.209,13.124 25.295,11.038 27.864,11.038C30.433,11.038 32.519,13.124 32.519,15.693L32.519,110.456C32.519,113.025 30.433,115.111 27.864,115.111C25.295,115.111 23.209,113.025 23.209,110.456L23.209,15.693Z" style="fill:rgb(244,67,54);"/>
    </g>
    <path d="M35.433,87.86L45.958,87.86L45.224,89.489L35.433,89.489L35.433,87.86Z" style="fill:rgb(255,147,30);"/>
</svg>
